<svg xmlns="http://www.w3.org/2000/svg" version="1.1" xmlns:xlink="http://www.w3.org/1999/xlink" xmlns:svgjs="http://svgjs.dev/svgjs" width="2000" height="1247" viewBox="0 0 2000 1247"><g transform="matrix(1,0,0,1,-1.2121212121212466,0.504858299595071)"><svg viewBox="0 0 396 247" data-background-color="#ffffff" preserveAspectRatio="xMidYMid meet" height="1247" width="2000" xmlns="http://www.w3.org/2000/svg" xmlns:xlink="http://www.w3.org/1999/xlink"><g id="tight-bounds" transform="matrix(1,0,0,1,0.2400000000000091,-0.09999999999999432)"><svg viewBox="0 0 395.52 247.2" height="247.2" width="395.52"><g><svg></svg></g><g><svg viewBox="0 0 395.52 247.2" height="247.2" width="395.52"><mask id="573ff92f-4185-4ea5-8edf-3700d6cc6a1f"><rect width="395.52" height="247.2" fill="white"></rect><g transform="matrix(1,0,0,1,15.157263157894732,37.08)" id="clone"><svg viewBox="0 0 365.2054736842105 173.04" height="173.04" width="365.2054736842105"><g><svg viewBox="0 0 365.2054736842105 173.04" height="173.04" width="365.2054736842105"><g><svg viewBox="0 0 365.2054736842106 173.04000000000002" height="173.04" width="365.2054736842105"><g><svg viewBox="0 0 365.2054736842106 173.04000000000002" height="173.04000000000002" width="365.2054736842106"><g id="SvgjsG1054"><svg viewBox="0 0 365.2054736842106 173.04000000000002" height="173.04000000000002" width="365.2054736842106" id="SvgjsSvg1053"><g><svg viewBox="0 0 365.2054736842106 173.04000000000002" height="173.04000000000002" width="365.2054736842106"><g transform="matrix(1,0,0,1,0,0)"><svg width="365.2054736842106" viewBox="0.5 -36 81.19999694824219 39" height="173.04000000000002" data-palette-color="#233565"><path d="M15.3 0L3.5 0 3.5-1 7.45-2.5 7.45-30.5 3.5-32 3.5-33 15.3-33 15.3-32 11.35-30.5 11.35-2.5 15.3-1 15.3 0ZM33.7 0L22.05 0 22.05-1 26.05-2.5 26.05-30.5 22.05-32 22.05-33 33.7-33Q38.95-33 41.97-30.83 45-28.65 45-24.85L45-24.85Q45-21.95 43.07-19.78 41.15-17.6 38.05-16.55L38.05-16.55 47.6-2.3 50.9-1 50.9 0 44.3 0 34.5-15.35 29.95-15.35 29.95-2.55 33.7-1 33.7 0ZM33.2-30.65L33.2-30.65 29.95-30.65 29.95-17.7 33.5-17.7Q36.65-17.7 38.72-19.55 40.8-21.4 40.8-24.2L40.8-24.2Q40.8-27.2 38.75-28.93 36.7-30.65 33.2-30.65ZM66.3 0L53.9 0 53.9-1 57.9-2.5 57.9-30.5 53.9-32 53.9-33 65.65-33Q71.55-33 75.12-30.85 78.7-28.7 78.7-24.05L78.7-24.05Q78.7-21.3 76.9-19.18 75.09-17.05 71.92-15.8 68.75-14.55 64.7-14.55L64.7-14.55 61.8-14.55 61.8-2.5 66.3-1 66.3 0ZM65.5-30.65L61.8-30.65 61.8-16.9 65.84-16.9Q69.8-16.9 72.15-18.78 74.5-20.65 74.5-23.65L74.5-23.65Q74.5-27.35 72.12-29 69.75-30.65 65.5-30.65L65.5-30.65Z" opacity="1" transform="matrix(1,0,0,1,0,0)" fill="black" class="wordmark-text-0" id="SvgjsPath1052" stroke-width="5" stroke="black" stroke-linejoin="round"></path></svg></g></svg></g></svg></g></svg></g></svg></g></svg></g></svg></g></mask><g mask="url(#573ff92f-4185-4ea5-8edf-3700d6cc6a1f)"><g><path xmlns="http://www.w3.org/2000/svg" d="M241.956 247.2h-88.392v-7.491l29.589-11.236v-209.746l-29.589-11.236v-7.491h88.392v7.491l-29.589 11.236v209.746l29.589 11.236z" fill="#ffffff" fill-rule="nonzero" stroke="none" stroke-width="1" stroke-linecap="butt" stroke-linejoin="miter" stroke-miterlimit="10" stroke-dasharray="" stroke-dashoffset="0" font-family="none" font-weight="none" font-size="none" text-anchor="none" style="mix-blend-mode: normal" data-fill-palette-color="tertiary"></path></g></g><g transform="matrix(1,0,0,1,15.157263157894732,37.08)"><svg viewBox="0 0 365.2054736842105 173.04" height="173.04" width="365.2054736842105"><g><svg viewBox="0 0 365.2054736842105 173.04" height="173.04" width="365.2054736842105"><g><svg viewBox="0 0 365.2054736842106 173.04000000000002" height="173.04" width="365.2054736842105"><g><svg viewBox="0 0 365.2054736842106 173.04000000000002" height="173.04000000000002" width="365.2054736842106"><g id="textblocktransform"><svg viewBox="0 0 365.2054736842106 173.04000000000002" height="173.04000000000002" width="365.2054736842106" id="textblock"><g><svg viewBox="0 0 365.2054736842106 173.04000000000002" height="173.04000000000002" width="365.2054736842106"><g transform="matrix(1,0,0,1,0,0)"><svg width="365.2054736842106" viewBox="0.5 -36 81.19999694824219 39" height="173.04000000000002" data-palette-color="#233565"><path d="M15.3 0L3.5 0 3.5-1 7.45-2.5 7.45-30.5 3.5-32 3.5-33 15.3-33 15.3-32 11.35-30.5 11.35-2.5 15.3-1 15.3 0ZM33.7 0L22.05 0 22.05-1 26.05-2.5 26.05-30.5 22.05-32 22.05-33 33.7-33Q38.95-33 41.97-30.83 45-28.65 45-24.85L45-24.85Q45-21.95 43.07-19.78 41.15-17.6 38.05-16.55L38.05-16.55 47.6-2.3 50.9-1 50.9 0 44.3 0 34.5-15.35 29.95-15.35 29.95-2.55 33.7-1 33.7 0ZM33.2-30.65L33.2-30.65 29.95-30.65 29.95-17.7 33.5-17.7Q36.65-17.7 38.72-19.55 40.8-21.4 40.8-24.2L40.8-24.2Q40.8-27.2 38.75-28.93 36.7-30.65 33.2-30.65ZM66.3 0L53.9 0 53.9-1 57.9-2.5 57.9-30.5 53.9-32 53.9-33 65.65-33Q71.55-33 75.12-30.85 78.7-28.7 78.7-24.05L78.7-24.05Q78.7-21.3 76.9-19.18 75.09-17.05 71.92-15.8 68.75-14.55 64.7-14.55L64.7-14.55 61.8-14.55 61.8-2.5 66.3-1 66.3 0ZM65.5-30.65L61.8-30.65 61.8-16.9 65.84-16.9Q69.8-16.9 72.15-18.78 74.5-20.65 74.5-23.65L74.5-23.65Q74.5-27.35 72.12-29 69.75-30.65 65.5-30.65L65.5-30.65Z" opacity="1" transform="matrix(1,0,0,1,0,0)" fill="#ffffff" class="wordmark-text-0" data-fill-palette-color="primary" id="text-0"></path></svg></g></svg></g></svg></g></svg></g></svg></g></svg></g></svg></g></svg></g><defs></defs></svg><rect width="395.52" height="247.2" fill="none" stroke="none" visibility="hidden"></rect></g></svg></g></svg>